<svg xmlns="http://www.w3.org/2000/svg" viewBox="0 0 800 600" width="800" height="600"><defs>
<linearGradient id="sky" x1="0" y1="0" x2="0" y2="1"><stop offset="0" stop-color="#6fb2e6"/><stop offset=".65" stop-color="#b9dcf2"/><stop offset="1" stop-color="#e8f3f8"/></linearGradient>
<linearGradient id="dusk" x1="0" y1="0" x2="0" y2="1"><stop offset="0" stop-color="#1d2a44"/><stop offset=".55" stop-color="#4b4a66"/><stop offset="1" stop-color="#d7936a"/></linearGradient>
<linearGradient id="wall" x1="0" y1="0" x2="0" y2="1"><stop offset="0" stop-color="#f1ece4"/><stop offset="1" stop-color="#ddd5c8"/></linearGradient>
<linearGradient id="wallDark" x1="0" y1="0" x2="0" y2="1"><stop offset="0" stop-color="#e6e2dc"/><stop offset="1" stop-color="#cfc9c0"/></linearGradient>
<linearGradient id="floor" x1="0" y1="0" x2="0" y2="1"><stop offset="0" stop-color="#b9ada0"/><stop offset="1" stop-color="#8f8376"/></linearGradient>
<linearGradient id="wood" x1="0" y1="0" x2="0" y2="1"><stop offset="0" stop-color="#b98b5e"/><stop offset="1" stop-color="#8a6240"/></linearGradient>
<linearGradient id="lawn" x1="0" y1="0" x2="0" y2="1"><stop offset="0" stop-color="#86b35c"/><stop offset="1" stop-color="#557f36"/></linearGradient>
<linearGradient id="alu" x1="0" y1="0" x2="1" y2="0"><stop offset="0" stop-color="#2a2c30"/><stop offset=".5" stop-color="#43464c"/><stop offset="1" stop-color="#232528"/></linearGradient>
<linearGradient id="upvc" x1="0" y1="0" x2="1" y2="0"><stop offset="0" stop-color="#e9e9e6"/><stop offset=".5" stop-color="#ffffff"/><stop offset="1" stop-color="#dcdcd8"/></linearGradient>
<linearGradient id="sheen" x1="0" y1="0" x2="1" y2="1"><stop offset="0" stop-color="#fff" stop-opacity=".45"/><stop offset="1" stop-color="#fff" stop-opacity="0"/></linearGradient>
<linearGradient id="tint" x1="0" y1="0" x2="0" y2="1"><stop offset="0" stop-color="#bfe3ea" stop-opacity=".22"/><stop offset="1" stop-color="#8fc7cf" stop-opacity=".12"/></linearGradient>
<linearGradient id="warm" x1="0" y1="0" x2="0" y2="1"><stop offset="0" stop-color="#ffe3a6"/><stop offset="1" stop-color="#e2a653"/></linearGradient>
<linearGradient id="spill" x1="0" y1="0" x2="0" y2="1"><stop offset="0" stop-color="#fffbe8" stop-opacity=".55"/><stop offset="1" stop-color="#fffbe8" stop-opacity="0"/></linearGradient>
<radialGradient id="sun" cx=".5" cy=".5" r=".5"><stop offset="0" stop-color="#fffbe6" stop-opacity=".95"/><stop offset="1" stop-color="#fffbe6" stop-opacity="0"/></radialGradient>
<radialGradient id="lamp" cx=".5" cy="0" r="1"><stop offset="0" stop-color="#fff4d6" stop-opacity=".7"/><stop offset="1" stop-color="#fff4d6" stop-opacity="0"/></radialGradient>
<radialGradient id="vignette" cx=".5" cy=".45" r=".75"><stop offset=".6" stop-color="#000" stop-opacity="0"/><stop offset="1" stop-color="#000" stop-opacity=".28"/></radialGradient>
</defs><rect width="800" height="600" fill="url(#wall)"/><rect y="505" width="800" height="95" fill="url(#floor)"/><line x1="40" y1="505" x2="-284.0" y2="600" stroke="#7d7266" stroke-width="1" opacity=".35"/><line x1="140" y1="505" x2="-94.0" y2="600" stroke="#7d7266" stroke-width="1" opacity=".35"/><line x1="240" y1="505" x2="96.0" y2="600" stroke="#7d7266" stroke-width="1" opacity=".35"/><line x1="340" y1="505" x2="286.0" y2="600" stroke="#7d7266" stroke-width="1" opacity=".35"/><line x1="440" y1="505" x2="476.0" y2="600" stroke="#7d7266" stroke-width="1" opacity=".35"/><line x1="540" y1="505" x2="666.0" y2="600" stroke="#7d7266" stroke-width="1" opacity=".35"/><line x1="640" y1="505" x2="856.0" y2="600" stroke="#7d7266" stroke-width="1" opacity=".35"/><line x1="740" y1="505" x2="1046.0" y2="600" stroke="#7d7266" stroke-width="1" opacity=".35"/><rect y="497" width="800" height="8" fill="#cfc6b8"/><rect x="94" y="74" width="612" height="372" fill="#cfc7ba"/><clipPath id="c1"><rect x="110" y="90" width="580" height="340"/></clipPath><g clip-path="url(#c1)"><rect x="110" y="90" width="580" height="340" fill="url(#sky)"/><circle cx="527.5999999999999" cy="164.8" r="118.99999999999999" fill="url(#sun)"/><ellipse cx="397" cy="159" rx="72" ry="10" fill="#fff" opacity=".55"/><ellipse cx="317" cy="169" rx="59" ry="10" fill="#fff" opacity=".55"/><ellipse cx="356" cy="142" rx="47" ry="12" fill="#fff" opacity=".55"/><path d="M90,311 L110,259 L182,265 L255,267 L328,276 L400,273 L472,281 L545,264 L618,277 L690,277 L710,311 Z" fill="#9db8c7"/><path d="M90,321 L110,279 L207,293 L303,279 L400,287 L497,284 L593,287 L690,297 L710,321 Z" fill="#7ea27a"/><rect x="110" y="300.8" width="580" height="134.2" fill="url(#lawn)"/><rect x="156.74935439833249" y="279.6604955623716" width="3.696959448714602" height="27.727195865359516" fill="#5b4632"/><circle cx="149.0" cy="255.3" r="14.4" fill="#3f6b32"/><circle cx="146.0" cy="263.8" r="17.5" fill="#3f6b32"/><circle cx="171.5" cy="264.7" r="12.7" fill="#3f6b32"/><circle cx="154.6" cy="255.4" r="13.4" fill="#3f6b32"/><circle cx="161.7" cy="269.7" r="12.2" fill="#3f6b32"/><circle cx="158.3" cy="264.7" r="14.6" fill="#3f6b32"/><circle cx="151.6" cy="257.4" r="6.8" fill="#5a8a3f" opacity=".8"/><circle cx="160.8" cy="262.1" r="8.8" fill="#5a8a3f" opacity=".8"/><circle cx="156.1" cy="267.8" r="7.8" fill="#5a8a3f" opacity=".8"/><rect x="199.16806913219887" y="272.47393198950664" width="4.808007967266931" height="36.060059754501985" fill="#5b4632"/><circle cx="190.1" cy="264.5" r="23.5" fill="#3f6b32"/><circle cx="213.4" cy="254.5" r="19.4" fill="#3f6b32"/><circle cx="214.1" cy="262.7" r="22.4" fill="#3f6b32"/><circle cx="190.7" cy="259.3" r="21.8" fill="#3f6b32"/><circle cx="192.8" cy="245.8" r="22.7" fill="#3f6b32"/><circle cx="203.9" cy="252.6" r="19.7" fill="#3f6b32"/><circle cx="195.1" cy="240.0" r="8.9" fill="#5a8a3f" opacity=".8"/><circle cx="198.2" cy="237.5" r="12.7" fill="#5a8a3f" opacity=".8"/><circle cx="210.2" cy="248.2" r="8.8" fill="#5a8a3f" opacity=".8"/><rect x="295.15718111970324" y="279.2242139953517" width="3.617379467464087" height="27.130346005980652" fill="#5b4632"/><circle cx="287.5" cy="266.5" r="12.2" fill="#3f6b32"/><circle cx="291.4" cy="259.8" r="14.7" fill="#3f6b32"/><circle cx="307.9" cy="268.6" r="16.7" fill="#3f6b32"/><circle cx="302.7" cy="267.3" r="12.2" fill="#3f6b32"/><circle cx="285.8" cy="257.3" r="15.0" fill="#3f6b32"/><circle cx="292.9" cy="277.5" r="13.0" fill="#3f6b32"/><circle cx="290.1" cy="261.9" r="8.5" fill="#5a8a3f" opacity=".8"/><circle cx="288.8" cy="256.5" r="7.9" fill="#5a8a3f" opacity=".8"/><circle cx="301.3" cy="264.4" r="9.5" fill="#5a8a3f" opacity=".8"/><rect x="363.9082889494795" y="285.4196753170278" width="3.834695474217259" height="28.760216056629446" fill="#5b4632"/><circle cx="360.2" cy="262.3" r="18.0" fill="#3f6b32"/><circle cx="369.9" cy="275.1" r="19.0" fill="#3f6b32"/><circle cx="369.4" cy="266.9" r="17.1" fill="#3f6b32"/><circle cx="377.3" cy="263.4" r="18.8" fill="#3f6b32"/><circle cx="363.6" cy="261.6" r="15.9" fill="#3f6b32"/><circle cx="373.4" cy="271.8" r="14.3" fill="#3f6b32"/><circle cx="369.5" cy="256.7" r="9.3" fill="#5a8a3f" opacity=".8"/><circle cx="362.5" cy="266.5" r="8.7" fill="#5a8a3f" opacity=".8"/><circle cx="361.1" cy="258.7" r="9.9" fill="#5a8a3f" opacity=".8"/><rect x="431.69691321897153" y="276.86558689847857" width="4.102988755662083" height="30.772415667465623" fill="#5b4632"/><circle cx="441.4" cy="250.7" r="16.6" fill="#3f6b32"/><circle cx="423.8" cy="270.2" r="13.7" fill="#3f6b32"/><circle cx="443.3" cy="264.2" r="17.0" fill="#3f6b32"/><circle cx="434.8" cy="256.1" r="16.6" fill="#3f6b32"/><circle cx="424.3" cy="258.4" r="17.6" fill="#3f6b32"/><circle cx="436.9" cy="257.5" r="17.8" fill="#3f6b32"/><circle cx="438.0" cy="260.0" r="7.2" fill="#5a8a3f" opacity=".8"/><circle cx="432.7" cy="247.5" r="10.5" fill="#5a8a3f" opacity=".8"/><circle cx="434.2" cy="253.1" r="9.7" fill="#5a8a3f" opacity=".8"/><rect x="506.97961844291865" y="270.79165260430824" width="4.81107076367717" height="36.08303072757878" fill="#5b4632"/><circle cx="494.4" cy="238.3" r="18.1" fill="#3f6b32"/><circle cx="497.3" cy="249.7" r="20.8" fill="#3f6b32"/><circle cx="505.7" cy="269.8" r="18.4" fill="#3f6b32"/><circle cx="524.2" cy="270.1" r="20.3" fill="#3f6b32"/><circle cx="519.7" cy="239.7" r="23.5" fill="#3f6b32"/><circle cx="507.4" cy="248.5" r="23.4" fill="#3f6b32"/><circle cx="506.0" cy="234.4" r="8.6" fill="#5a8a3f" opacity=".8"/><circle cx="514.7" cy="236.6" r="11.5" fill="#5a8a3f" opacity=".8"/><circle cx="499.2" cy="251.9" r="13.1" fill="#5a8a3f" opacity=".8"/><rect x="571.2122576924232" y="276.9351093611118" width="4.775959555847004" height="35.81969666885253" fill="#5b4632"/><circle cx="564.7" cy="259.3" r="23.9" fill="#3f6b32"/><circle cx="588.7" cy="262.3" r="20.1" fill="#3f6b32"/><circle cx="557.6" cy="271.3" r="23.4" fill="#3f6b32"/><circle cx="575.7" cy="251.3" r="16.6" fill="#3f6b32"/><circle cx="578.1" cy="266.7" r="20.5" fill="#3f6b32"/><circle cx="585.0" cy="244.7" r="15.6" fill="#3f6b32"/><circle cx="563.9" cy="246.1" r="8.6" fill="#5a8a3f" opacity=".8"/><circle cx="566.9" cy="243.7" r="12.2" fill="#5a8a3f" opacity=".8"/><circle cx="573.0" cy="243.5" r="10.8" fill="#5a8a3f" opacity=".8"/><rect x="632.2386766368782" y="292.18055496559674" width="2.9997135520942506" height="22.49785164070688" fill="#5b4632"/><circle cx="628.2" cy="283.2" r="14.4" fill="#3f6b32"/><circle cx="637.0" cy="274.0" r="12.9" fill="#3f6b32"/><circle cx="638.8" cy="290.8" r="13.1" fill="#3f6b32"/><circle cx="628.5" cy="288.6" r="13.4" fill="#3f6b32"/><circle cx="642.0" cy="275.4" r="14.1" fill="#3f6b32"/><circle cx="633.3" cy="275.8" r="11.1" fill="#3f6b32"/><circle cx="627.6" cy="281.6" r="5.7" fill="#5a8a3f" opacity=".8"/><circle cx="634.8" cy="272.0" r="6.0" fill="#5a8a3f" opacity=".8"/><circle cx="631.0" cy="280.9" r="5.4" fill="#5a8a3f" opacity=".8"/><ellipse cx="336" cy="337" rx="20" ry="10" fill="#4d7a33" opacity=".9"/><ellipse cx="612" cy="348" rx="24" ry="12" fill="#4d7a33" opacity=".9"/><ellipse cx="582" cy="326" rx="15" ry="10" fill="#4d7a33" opacity=".9"/><ellipse cx="224" cy="338" rx="20" ry="10" fill="#4d7a33" opacity=".9"/><ellipse cx="555" cy="353" rx="17" ry="10" fill="#4d7a33" opacity=".9"/><ellipse cx="384" cy="341" rx="23" ry="11" fill="#4d7a33" opacity=".9"/><ellipse cx="520" cy="339" rx="15" ry="10" fill="#4d7a33" opacity=".9"/><ellipse cx="257" cy="336" rx="15" ry="8" fill="#4d7a33" opacity=".9"/><ellipse cx="367" cy="359" rx="21" ry="9" fill="#4d7a33" opacity=".9"/><ellipse cx="662" cy="332" rx="22" ry="8" fill="#4d7a33" opacity=".9"/><ellipse cx="665" cy="358" rx="24" ry="10" fill="#4d7a33" opacity=".9"/><ellipse cx="372" cy="343" rx="25" ry="10" fill="#4d7a33" opacity=".9"/></g><clipPath id="c2"><rect x="110" y="90" width="310.0" height="340"/></clipPath><g clip-path="url(#c2)"><polygon points="134.8,90 227.8,90 116.2,277.0 110,277.0 110,124.0" fill="#fff" opacity="0.16"/><polygon points="258.79999999999995,90 289.79999999999995,90 147.2,334.79999999999995 116.2,334.79999999999995" fill="#fff" opacity="0.1"/></g><rect x="110" y="90" width="310.0" height="340" fill="url(#tint)"/><path d="M110,90h580v340h-580Z M122,102v316h556v-316Z" fill="url(#alu)" fill-rule="evenodd"/><rect x="122" y="102" width="556" height="316" fill="none" stroke="#16171a" stroke-width="1.5" opacity=".7"/><rect x="110" y="90" width="580" height="340" fill="none" stroke="#16171a" stroke-width="1.5" opacity=".6"/><rect x="122" y="102" width="296.0" height="316" fill="none" stroke="#1d1e21" stroke-width="12"/><rect x="360.0" y="108" width="318.0" height="304" fill="none" stroke="#2a2c30" stroke-width="12"/><rect x="369.0" y="240.0" width="6" height="40" rx="3" fill="#c9ccd1" stroke="#555" stroke-width=".8"/><rect x="84" y="446" width="632" height="12" fill="#e9e3d8"/><polygon points="130,505 670,505 710,600 118.0,600" fill="url(#spill)"/><rect x="90" y="487" width="200" height="40" rx="10" fill="#6d6259"/><rect x="82" y="515" width="216" height="30" rx="8" fill="#7d7168"/><rect x="110" y="495" width="40" height="26" rx="6" fill="#c9a56a"/><rect x="90" y="545" width="6" height="10" fill="#3a332c"/><rect x="284" y="545" width="6" height="10" fill="#3a332c"/><rect width="800" height="600" fill="url(#vignette)"/></svg>