<svg xmlns="http://www.w3.org/2000/svg" viewBox="0 0 800 600" width="800" height="600"><defs>
<linearGradient id="sky" x1="0" y1="0" x2="0" y2="1"><stop offset="0" stop-color="#6fb2e6"/><stop offset=".65" stop-color="#b9dcf2"/><stop offset="1" stop-color="#e8f3f8"/></linearGradient>
<linearGradient id="dusk" x1="0" y1="0" x2="0" y2="1"><stop offset="0" stop-color="#1d2a44"/><stop offset=".55" stop-color="#4b4a66"/><stop offset="1" stop-color="#d7936a"/></linearGradient>
<linearGradient id="wall" x1="0" y1="0" x2="0" y2="1"><stop offset="0" stop-color="#f1ece4"/><stop offset="1" stop-color="#ddd5c8"/></linearGradient>
<linearGradient id="wallDark" x1="0" y1="0" x2="0" y2="1"><stop offset="0" stop-color="#e6e2dc"/><stop offset="1" stop-color="#cfc9c0"/></linearGradient>
<linearGradient id="floor" x1="0" y1="0" x2="0" y2="1"><stop offset="0" stop-color="#b9ada0"/><stop offset="1" stop-color="#8f8376"/></linearGradient>
<linearGradient id="wood" x1="0" y1="0" x2="0" y2="1"><stop offset="0" stop-color="#b98b5e"/><stop offset="1" stop-color="#8a6240"/></linearGradient>
<linearGradient id="lawn" x1="0" y1="0" x2="0" y2="1"><stop offset="0" stop-color="#86b35c"/><stop offset="1" stop-color="#557f36"/></linearGradient>
<linearGradient id="alu" x1="0" y1="0" x2="1" y2="0"><stop offset="0" stop-color="#2a2c30"/><stop offset=".5" stop-color="#43464c"/><stop offset="1" stop-color="#232528"/></linearGradient>
<linearGradient id="upvc" x1="0" y1="0" x2="1" y2="0"><stop offset="0" stop-color="#e9e9e6"/><stop offset=".5" stop-color="#ffffff"/><stop offset="1" stop-color="#dcdcd8"/></linearGradient>
<linearGradient id="sheen" x1="0" y1="0" x2="1" y2="1"><stop offset="0" stop-color="#fff" stop-opacity=".45"/><stop offset="1" stop-color="#fff" stop-opacity="0"/></linearGradient>
<linearGradient id="tint" x1="0" y1="0" x2="0" y2="1"><stop offset="0" stop-color="#bfe3ea" stop-opacity=".22"/><stop offset="1" stop-color="#8fc7cf" stop-opacity=".12"/></linearGradient>
<linearGradient id="warm" x1="0" y1="0" x2="0" y2="1"><stop offset="0" stop-color="#ffe3a6"/><stop offset="1" stop-color="#e2a653"/></linearGradient>
<linearGradient id="spill" x1="0" y1="0" x2="0" y2="1"><stop offset="0" stop-color="#fffbe8" stop-opacity=".55"/><stop offset="1" stop-color="#fffbe8" stop-opacity="0"/></linearGradient>
<radialGradient id="sun" cx=".5" cy=".5" r=".5"><stop offset="0" stop-color="#fffbe6" stop-opacity=".95"/><stop offset="1" stop-color="#fffbe6" stop-opacity="0"/></radialGradient>
<radialGradient id="lamp" cx=".5" cy="0" r="1"><stop offset="0" stop-color="#fff4d6" stop-opacity=".7"/><stop offset="1" stop-color="#fff4d6" stop-opacity="0"/></radialGradient>
<radialGradient id="vignette" cx=".5" cy=".45" r=".75"><stop offset=".6" stop-color="#000" stop-opacity="0"/><stop offset="1" stop-color="#000" stop-opacity=".28"/></radialGradient>
</defs><rect width="800" height="600" fill="url(#wall)"/><rect y="505" width="800" height="95" fill="url(#floor)"/><line x1="40" y1="505" x2="-284.0" y2="600" stroke="#7d7266" stroke-width="1" opacity=".35"/><line x1="140" y1="505" x2="-94.0" y2="600" stroke="#7d7266" stroke-width="1" opacity=".35"/><line x1="240" y1="505" x2="96.0" y2="600" stroke="#7d7266" stroke-width="1" opacity=".35"/><line x1="340" y1="505" x2="286.0" y2="600" stroke="#7d7266" stroke-width="1" opacity=".35"/><line x1="440" y1="505" x2="476.0" y2="600" stroke="#7d7266" stroke-width="1" opacity=".35"/><line x1="540" y1="505" x2="666.0" y2="600" stroke="#7d7266" stroke-width="1" opacity=".35"/><line x1="640" y1="505" x2="856.0" y2="600" stroke="#7d7266" stroke-width="1" opacity=".35"/><line x1="740" y1="505" x2="1046.0" y2="600" stroke="#7d7266" stroke-width="1" opacity=".35"/><rect y="497" width="800" height="8" fill="#cfc6b8"/><rect x="214" y="44" width="372" height="452" fill="#cfc7ba"/><clipPath id="c1"><rect x="230" y="60" width="340" height="420"/></clipPath><g clip-path="url(#c1)"><rect x="230" y="60" width="340" height="420" fill="url(#sky)"/><circle cx="474.79999999999995" cy="152.4" r="147.0" fill="url(#sun)"/><ellipse cx="330" cy="140" rx="46" ry="13" fill="#fff" opacity=".55"/><ellipse cx="327" cy="145" rx="77" ry="10" fill="#fff" opacity=".55"/><ellipse cx="527" cy="161" rx="62" ry="12" fill="#fff" opacity=".55"/><path d="M210,330 L230,288 L272,295 L315,275 L358,293 L400,276 L442,280 L485,305 L528,298 L570,291 L590,330 Z" fill="#9db8c7"/><path d="M210,340 L230,302 L287,316 L343,307 L400,312 L457,303 L513,300 L570,304 L590,340 Z" fill="#7ea27a"/><rect x="230" y="320.4" width="340" height="164.60000000000002" fill="url(#lawn)"/><rect x="249.76178662493083" y="303.7732018099338" width="3.763957052707604" height="28.22967789530703" fill="#5b4632"/><circle cx="260.5" cy="289.8" r="18.2" fill="#3f6b32"/><circle cx="264.5" cy="299.1" r="17.7" fill="#3f6b32"/><circle cx="260.0" cy="293.0" r="13.4" fill="#3f6b32"/><circle cx="264.5" cy="289.7" r="12.3" fill="#3f6b32"/><circle cx="249.9" cy="288.4" r="13.6" fill="#3f6b32"/><circle cx="263.8" cy="280.4" r="18.2" fill="#3f6b32"/><circle cx="251.5" cy="277.0" r="7.9" fill="#5a8a3f" opacity=".8"/><circle cx="249.9" cy="275.9" r="9.5" fill="#5a8a3f" opacity=".8"/><circle cx="253.3" cy="292.1" r="9.7" fill="#5a8a3f" opacity=".8"/><rect x="374.52074921216933" y="297.99284091582683" width="4.850164572354341" height="36.37623429265756" fill="#5b4632"/><circle cx="381.8" cy="282.4" r="20.2" fill="#3f6b32"/><circle cx="387.6" cy="295.5" r="22.8" fill="#3f6b32"/><circle cx="388.5" cy="265.0" r="19.3" fill="#3f6b32"/><circle cx="362.9" cy="283.9" r="20.7" fill="#3f6b32"/><circle cx="379.0" cy="293.2" r="17.7" fill="#3f6b32"/><circle cx="384.7" cy="284.0" r="17.6" fill="#3f6b32"/><circle cx="386.2" cy="260.5" r="10.7" fill="#5a8a3f" opacity=".8"/><circle cx="376.5" cy="273.6" r="13.3" fill="#5a8a3f" opacity=".8"/><circle cx="376.9" cy="280.7" r="9.9" fill="#5a8a3f" opacity=".8"/><rect x="439.13327001054006" y="294.3141309478025" width="4.207296534966603" height="31.554724012249523" fill="#5b4632"/><circle cx="438.9" cy="288.0" r="14.5" fill="#3f6b32"/><circle cx="440.2" cy="293.1" r="13.8" fill="#3f6b32"/><circle cx="446.0" cy="284.8" r="19.0" fill="#3f6b32"/><circle cx="442.9" cy="279.6" r="20.7" fill="#3f6b32"/><circle cx="434.9" cy="285.6" r="18.6" fill="#3f6b32"/><circle cx="448.0" cy="278.9" r="13.8" fill="#3f6b32"/><circle cx="445.4" cy="266.5" r="10.7" fill="#5a8a3f" opacity=".8"/><circle cx="449.4" cy="277.0" r="9.1" fill="#5a8a3f" opacity=".8"/><circle cx="446.9" cy="268.8" r="8.7" fill="#5a8a3f" opacity=".8"/><rect x="530.1790331672707" y="298.616912230881" width="4.308986813762137" height="32.31740110321603" fill="#5b4632"/><circle cx="533.9" cy="280.8" r="19.6" fill="#3f6b32"/><circle cx="527.0" cy="286.7" r="14.0" fill="#3f6b32"/><circle cx="521.2" cy="294.6" r="15.6" fill="#3f6b32"/><circle cx="529.7" cy="270.1" r="19.8" fill="#3f6b32"/><circle cx="527.2" cy="269.9" r="16.1" fill="#3f6b32"/><circle cx="545.3" cy="291.2" r="14.0" fill="#3f6b32"/><circle cx="540.1" cy="265.7" r="9.6" fill="#5a8a3f" opacity=".8"/><circle cx="531.9" cy="281.0" r="8.2" fill="#5a8a3f" opacity=".8"/><circle cx="537.6" cy="270.1" r="10.7" fill="#5a8a3f" opacity=".8"/><ellipse cx="545" cy="366" rx="14" ry="11" fill="#4d7a33" opacity=".9"/><ellipse cx="378" cy="371" rx="23" ry="8" fill="#4d7a33" opacity=".9"/><ellipse cx="423" cy="368" rx="25" ry="10" fill="#4d7a33" opacity=".9"/><ellipse cx="439" cy="372" rx="16" ry="11" fill="#4d7a33" opacity=".9"/><ellipse cx="428" cy="367" rx="16" ry="10" fill="#4d7a33" opacity=".9"/><ellipse cx="369" cy="352" rx="25" ry="11" fill="#4d7a33" opacity=".9"/><ellipse cx="386" cy="347" rx="26" ry="8" fill="#4d7a33" opacity=".9"/></g><path d="M230,60h340v420h-340Z M242,72v396h316v-396Z" fill="url(#alu)" fill-rule="evenodd"/><rect x="242" y="72" width="316" height="396" fill="none" stroke="#16171a" stroke-width="1.5" opacity=".7"/><rect x="230" y="60" width="340" height="420" fill="none" stroke="#16171a" stroke-width="1.5" opacity=".6"/><polygon points="226,64 574,64 558,468 242,468" fill="#d6ecf3" fill-opacity=".25" stroke="#1d1e21" stroke-width="12" stroke-linejoin="round"/><polygon points="240,74 400.0,74 280,312.0 250,312.0" fill="#fff" opacity=".14"/><line x1="550" y1="80" x2="560" y2="62" stroke="#999" stroke-width="3"/><rect x="555" y="278.0" width="6" height="44" rx="3" fill="#c9ccd1" stroke="#555" stroke-width=".8"/><rect x="204" y="496" width="392" height="12" fill="#e9e3d8"/><polygon points="250,505 550,505 590,600 238.0,600" fill="url(#spill)"/><path d="M102.0,545 l4,-38.0 h28.0 l4,38.0Z" fill="#2c2c2e"/><path d="M120,507.0 Q105.50243366097112,480.18844449083576 75,453" stroke="#3d7a3a" stroke-width="7.0" fill="none" stroke-linecap="round"/><path d="M120,507.0 Q116.35314297038656,463.5333378169919 97,420" stroke="#3d7a3a" stroke-width="7.0" fill="none" stroke-linecap="round"/><path d="M120,507.0 Q135.38004755084455,465.14567049698115 135,423" stroke="#3d7a3a" stroke-width="7.0" fill="none" stroke-linecap="round"/><path d="M120,507.0 Q148.64875170863766,477.5105264055963 161,448" stroke="#3d7a3a" stroke-width="7.0" fill="none" stroke-linecap="round"/><path d="M120,507.0 Q106.34936490538902,494.5 77,482" stroke="#3d7a3a" stroke-width="7.0" fill="none" stroke-linecap="round"/><path d="M120,507.0 Q150.52668121794727,491.22664800034624 165,475" stroke="#3d7a3a" stroke-width="7.0" fill="none" stroke-linecap="round"/><path d="M673.8,545 l4,-34.2 h25.2 l4,34.2Z" fill="#2c2c2e"/><path d="M690,510.8 Q676.9521902948741,486.66960004175223 650,463" stroke="#3d7a3a" stroke-width="6.3" fill="none" stroke-linecap="round"/><path d="M690,510.8 Q686.7178286733479,471.68000403529277 669,433" stroke="#3d7a3a" stroke-width="6.3" fill="none" stroke-linecap="round"/><path d="M690,510.8 Q703.8420427957601,473.13110344728307 703,435" stroke="#3d7a3a" stroke-width="6.3" fill="none" stroke-linecap="round"/><path d="M690,510.8 Q715.783876537774,484.25947376503666 727,458" stroke="#3d7a3a" stroke-width="6.3" fill="none" stroke-linecap="round"/><path d="M690,510.8 Q677.7144284148501,499.55 651,488" stroke="#3d7a3a" stroke-width="6.3" fill="none" stroke-linecap="round"/><path d="M690,510.8 Q717.4740130961526,496.60398320031163 731,482" stroke="#3d7a3a" stroke-width="6.3" fill="none" stroke-linecap="round"/><rect width="800" height="600" fill="url(#vignette)"/></svg>